<svg width="45" height="47" viewBox="0 0 45 47" fill="none" xmlns="http://www.w3.org/2000/svg">
<path d="M36.6999 23.797C36.8356 23.9725 36.9292 24.1768 36.9736 24.3941C37.018 24.6115 37.0121 24.8361 36.9561 25.0508C36.8949 25.2855 35.4167 30.7624 30.9392 33.3944H30.9769C31.651 33.3944 32.3158 33.551 32.9191 33.8516C33.5224 34.1523 34.0476 34.5889 34.4535 35.1271C34.8593 35.6652 35.1347 36.2903 35.258 36.953C35.3812 37.6157 35.349 38.2979 35.1637 38.946L33.9198 43.3008C33.6571 44.2092 33.1071 45.0079 32.3521 45.5773C31.5972 46.1467 30.678 46.456 29.7324 46.4589H15.2411C14.2956 46.4559 13.3765 46.1466 12.6216 45.5772C11.8666 45.0079 11.3166 44.2092 11.0539 43.3008L9.81001 38.946C9.62476 38.2979 9.5925 37.6157 9.71574 36.953C9.83899 36.2903 10.1144 35.6652 10.5203 35.1271C10.9261 34.5889 11.4514 34.1523 12.0546 33.8516C12.6579 33.551 13.3228 33.3944 13.9968 33.3944H14.0346C9.55692 30.7624 8.07874 25.2855 8.01763 25.0508C7.96168 24.8362 7.95568 24.6115 8.00007 24.3942C8.04446 24.1769 8.13806 23.9726 8.27369 23.7971C8.40933 23.6216 8.58338 23.4795 8.78249 23.3817C8.9816 23.2839 9.20046 23.2331 9.42228 23.2331C15.384 23.2331 18.939 25.2694 21.0352 27.4369V24.5917C17.9105 24.2215 15.0452 22.6716 13.0255 20.2588C11.0058 17.846 9.98411 14.7527 10.1695 11.6116C10.3549 8.47054 11.7334 5.51895 14.023 3.36055C16.3125 1.20214 19.3402 0 22.4868 0C25.6334 0 28.661 1.20214 30.9506 3.36055C33.2402 5.51895 34.6186 8.47054 34.8041 11.6116C34.9895 14.7527 33.9678 17.846 31.9481 20.2588C29.9284 22.6716 27.0631 24.2215 23.9384 24.5917V27.4369C26.0346 25.2694 29.5896 23.2331 35.5513 23.2331C35.7731 23.2332 35.9919 23.284 36.191 23.3818C36.3901 23.4795 36.5642 23.6215 36.6999 23.797ZM22.4868 21.7815C24.353 21.7815 26.1772 21.2281 27.7289 20.1913C29.2805 19.1545 30.4899 17.6809 31.204 15.9568C31.9182 14.2327 32.105 12.3355 31.741 10.5052C31.3769 8.67492 30.4783 6.99368 29.1587 5.6741C27.8391 4.35453 26.1579 3.45589 24.3276 3.09182C22.4973 2.72775 20.6001 2.9146 18.876 3.62875C17.1519 4.3429 15.6783 5.55227 14.6415 7.10393C13.6047 8.65558 13.0513 10.4798 13.0513 12.346C13.0541 14.8476 14.0491 17.2459 15.818 19.0148C17.5869 20.7837 19.9852 21.7787 22.4868 21.7815ZM15.6299 30.971C17.1467 31.7922 18.9004 32.0652 20.5951 31.744C19.7438 29.9367 17.4459 26.854 11.5692 26.2434C12.413 28.194 13.829 29.8425 15.6299 30.971ZM30.9768 36.2976H13.9968C13.7722 36.2977 13.5506 36.3498 13.3495 36.4501C13.1485 36.5503 12.9734 36.6958 12.8382 36.8751C12.7029 37.0545 12.6111 37.2628 12.57 37.4837C12.5289 37.7045 12.5396 37.9319 12.6013 38.1479L13.8453 42.5028C13.9329 42.8055 14.1163 43.0718 14.3679 43.2616C14.6196 43.4514 14.9259 43.5546 15.2411 43.5557H29.7324C30.0477 43.5546 30.3541 43.4515 30.6057 43.2616C30.8574 43.0718 31.0408 42.8056 31.1284 42.5028L32.3724 38.1479C32.4341 37.9319 32.4448 37.7045 32.4037 37.4836C32.3626 37.2628 32.2708 37.0545 32.1355 36.8751C32.0002 36.6958 31.8251 36.5502 31.6241 36.45C31.423 36.3498 31.2014 36.2976 30.9768 36.2976ZM33.4044 26.2434C27.5274 26.854 25.2298 29.9365 24.3785 31.744C26.0732 32.0652 27.8268 31.7922 29.3437 30.971C31.1445 29.8424 32.5605 28.1939 33.4044 26.2434Z" fill="black"/>
<path d="M22.487 20.3298C22.102 20.3298 21.7328 20.1769 21.4605 19.9047C21.1883 19.6324 21.0354 19.2632 21.0354 18.8782V17.8446C20.6199 17.6647 20.2419 17.4085 19.9208 17.0893C19.786 16.9544 19.6791 16.7944 19.6062 16.6182C19.5333 16.4421 19.4958 16.2533 19.4958 16.0627C19.4958 15.872 19.5334 15.6832 19.6064 15.5071C19.6794 15.331 19.7863 15.171 19.9212 15.0362C20.056 14.9014 20.216 14.7945 20.3922 14.7216C20.5683 14.6487 20.7571 14.6111 20.9478 14.6112C21.1384 14.6112 21.3272 14.6488 21.5033 14.7218C21.6794 14.7947 21.8394 14.9017 21.9742 15.0365C22.0586 15.1208 22.1625 15.1829 22.2766 15.2174C22.3908 15.2519 22.5117 15.2578 22.6286 15.2344C22.7456 15.2111 22.855 15.1593 22.9471 15.0836C23.0393 15.0079 23.1113 14.9106 23.1569 14.8004C23.2025 14.6903 23.2203 14.5705 23.2086 14.4519C23.1969 14.3332 23.1561 14.2192 23.0899 14.12C23.0236 14.0209 22.934 13.9396 22.8288 13.8833C22.7236 13.8271 22.6062 13.7976 22.487 13.7976C21.6525 13.8 20.8428 13.5145 20.1945 12.9892C19.5461 12.4638 19.0989 11.7309 18.9283 10.9141C18.7577 10.0972 18.8742 9.24658 19.2581 8.50566C19.6419 7.76475 20.2697 7.17899 21.0354 6.84725V5.81371C21.0354 5.42871 21.1883 5.05949 21.4605 4.78726C21.7328 4.51503 22.102 4.36209 22.487 4.36209C22.872 4.36209 23.2412 4.51503 23.5134 4.78726C23.7857 5.05949 23.9386 5.42871 23.9386 5.81371V6.84733C24.3541 7.02722 24.7321 7.28343 25.0532 7.60267C25.1879 7.7375 25.2948 7.89755 25.3678 8.0737C25.4407 8.24984 25.4782 8.43862 25.4782 8.62927C25.4782 8.81991 25.4406 9.00868 25.3676 9.1848C25.2946 9.36092 25.1877 9.52094 25.0528 9.65573C24.918 9.79051 24.7579 9.89742 24.5818 9.97035C24.4057 10.0433 24.2169 10.0808 24.0262 10.0808C23.8356 10.0807 23.6468 10.0432 23.4707 9.97017C23.2946 9.89718 23.1346 9.79023 22.9998 9.6554C22.9154 9.57116 22.8115 9.50904 22.6973 9.47452C22.5832 9.44 22.4623 9.43415 22.3453 9.4575C22.2284 9.48084 22.119 9.53265 22.0269 9.60835C21.9347 9.68405 21.8627 9.78129 21.8171 9.89148C21.7714 10.0017 21.7537 10.1214 21.7654 10.2401C21.7771 10.3588 21.8179 10.4727 21.8841 10.5719C21.9504 10.671 22.04 10.7523 22.1452 10.8086C22.2503 10.8648 22.3677 10.8943 22.487 10.8944C23.3214 10.8919 24.1312 11.1774 24.7795 11.7028C25.4278 12.2281 25.8751 12.961 26.0457 13.7779C26.2163 14.5947 26.0998 15.4454 25.7159 16.1863C25.332 16.9272 24.7043 17.5129 23.9386 17.8447V18.8782C23.9386 19.2632 23.7857 19.6324 23.5134 19.9047C23.2412 20.1769 22.872 20.3298 22.487 20.3298ZM44.5617 6.23896L41.6585 3.33573C41.3863 3.06355 41.0171 2.91064 40.6322 2.91064C40.2472 2.91064 39.878 3.06355 39.6058 3.33573L36.7026 6.23896C36.436 6.51233 36.2879 6.87971 36.2904 7.26151C36.2928 7.64331 36.4455 8.00878 36.7155 8.27876C36.9855 8.54873 37.3509 8.70148 37.7327 8.70389C38.1145 8.70631 38.4819 8.55822 38.7553 8.29168L39.1805 7.86643V15.975C39.1805 16.36 39.3335 16.7292 39.6057 17.0014C39.8779 17.2737 40.2472 17.4266 40.6322 17.4266C41.0171 17.4266 41.3864 17.2737 41.6586 17.0014C41.9308 16.7292 42.0838 16.36 42.0838 15.975V7.86643L42.509 8.29168C42.6432 8.42928 42.8033 8.53887 42.9802 8.6141C43.157 8.68933 43.347 8.72869 43.5392 8.72991C43.7314 8.73113 43.9219 8.69417 44.0996 8.62119C44.2774 8.54821 44.4389 8.44066 44.5748 8.30477C44.7107 8.16888 44.8183 8.00736 44.8913 7.82958C44.9642 7.6518 45.0012 7.4613 45 7.26913C44.9988 7.07696 44.9594 6.88694 44.8842 6.7101C44.8089 6.53326 44.6993 6.37311 44.5617 6.23896ZM8.27142 6.23896L5.36819 3.33573C5.09597 3.06355 4.72678 2.91064 4.34183 2.91064C3.95688 2.91064 3.58769 3.06355 3.31547 3.33573L0.412242 6.23896C0.145708 6.51233 -0.0023901 6.87971 2.91807e-05 7.26151C0.00244846 7.64331 0.15519 8.00878 0.425168 8.27876C0.695145 8.54873 1.06062 8.70148 1.44241 8.70389C1.82421 8.70631 2.19159 8.55822 2.46497 8.29168L2.89022 7.86643V15.975C2.89022 16.36 3.04316 16.7292 3.31539 17.0014C3.58762 17.2737 3.95684 17.4266 4.34183 17.4266C4.72682 17.4266 5.09605 17.2737 5.36828 17.0014C5.64051 16.7292 5.79344 16.36 5.79344 15.975V7.86643L6.21869 8.29168C6.49207 8.55822 6.85945 8.70631 7.24125 8.70389C7.62304 8.70148 7.98852 8.54873 8.25849 8.27876C8.52847 8.00878 8.68121 7.64331 8.68363 7.26151C8.68605 6.87971 8.53795 6.51233 8.27142 6.23896Z" fill="#FF00D5"/>
</svg>
