<svg width="49" height="32" viewBox="0 0 49 32" fill="none" xmlns="http://www.w3.org/2000/svg">
<path d="M48.7941 11.4188L43.4359 10.443L43.1393 10.1778C40.6228 7.92848 37.572 6.42138 34.3088 5.77705L32.1691 0H16.6251L14.4854 5.77705C11.2222 6.42138 8.1713 7.92848 5.65478 10.1778L5.35802 10.443L0 11.4188V23.9696L5.22602 24.9214L5.41234 25.2053C8.20447 29.4599 12.9096 32 17.9985 32H20.6006L24.3971 30.3693L28.1936 32H30.7957C35.8846 32 40.5898 29.4599 43.3818 25.2053L43.5681 24.9214L48.7941 23.9696V11.4188ZM40.757 23.9811C38.472 27.22 34.7791 29.141 30.7957 29.141H28.7816L24.3971 27.2576L20.0126 29.141H17.9985C14.0151 29.141 10.3222 27.22 8.03702 23.981V11.8997C10.8708 9.56127 14.4242 8.28061 18.1127 8.28061H30.6815C34.37 8.28061 37.9233 9.56127 40.7571 11.8998V23.9811H40.757ZM2.85903 13.8043L5.17799 13.3819V22.0066L2.85903 21.5843V13.8043ZM30.1791 2.85903L31.1302 5.42711H17.664L18.6151 2.85903H30.1791ZM45.9351 21.5843L43.6161 22.0066V13.3819L45.9351 13.8043V21.5843Z" fill="#13111A"/>
<path d="M33.5485 15.8653C33.5485 13.7522 31.7683 12.0332 29.5803 12.0332H25.6895L25.6913 23.7504H28.5503V20.8162L31.6207 24.3047L33.7669 22.4159L31.1125 19.3999C32.5419 18.82 33.5485 17.4541 33.5485 15.8653ZM29.5803 14.8922C30.1711 14.8922 30.6894 15.3469 30.6894 15.8653C30.6894 16.3837 30.1711 16.8384 29.5803 16.8384C29.3335 16.8384 28.9517 16.8397 28.5624 16.8414C28.5607 16.4639 28.5585 15.2881 28.5574 14.8922H29.5803Z" fill="#FF00D5"/>
<path d="M21.3112 11.922L19.0033 18.8715L16.5969 11.9058L13.8945 12.8393L17.785 24.1007H20.2792L24.0246 12.8231L21.3112 11.922Z" fill="#FF00D5"/>
</svg>
