<svg width="33" height="45" viewBox="0 0 33 45" fill="none" xmlns="http://www.w3.org/2000/svg">
<path d="M16.364 20.4545C14.3412 20.4545 12.3639 19.8547 10.682 18.7309C9.00016 17.6072 7.68931 16.0099 6.91523 14.1411C6.14115 12.2723 5.93862 10.2159 6.33324 8.23203C6.72786 6.24814 7.70191 4.42581 9.13222 2.9955C10.5625 1.56519 12.3849 0.59114 14.3688 0.196519C16.3526 -0.198103 18.409 0.00443131 20.2778 0.778509C22.1466 1.55259 23.7439 2.86344 24.8677 4.54531C25.9914 6.22717 26.5913 8.20451 26.5913 10.2273C26.5881 12.9387 25.5095 15.5382 23.5922 17.4555C21.6749 19.3728 19.0755 20.4514 16.364 20.4545ZM16.364 4.09091C15.1503 4.09091 13.9639 4.4508 12.9548 5.12508C11.9457 5.79935 11.1592 6.75772 10.6947 7.87899C10.2303 9.00027 10.1088 10.2341 10.3455 11.4244C10.5823 12.6148 11.1667 13.7082 12.0249 14.5663C12.8831 15.4245 13.9765 16.009 15.1669 16.2457C16.3572 16.4825 17.591 16.361 18.7123 15.8965C19.8336 15.4321 20.7919 14.6456 21.4662 13.6365C22.1405 12.6273 22.5004 11.4409 22.5004 10.2273C22.4986 8.60036 21.8515 7.04059 20.7011 5.89019C19.5507 4.73978 17.9909 4.0927 16.364 4.09091Z" fill="#FF00D5"/>
<path d="M26.5909 22.5H6.13636C4.50945 22.5018 2.94968 23.1489 1.79927 24.2993C0.648868 25.4497 0.00178666 27.0094 0 28.6364C0 32.9763 1.72402 37.1384 4.7928 40.2072C7.86157 43.276 12.0237 45 16.3636 45C20.7035 45 24.8657 43.276 27.9345 40.2072C31.0032 37.1384 32.7273 32.9763 32.7273 28.6364C32.7255 27.0094 32.0784 25.4497 30.928 24.2993C29.7776 23.1489 28.2178 22.5018 26.5909 22.5ZM16.3636 40.9091C13.1098 40.9055 9.99026 39.6114 7.68945 37.3105C5.38865 35.0097 4.09448 31.8902 4.09091 28.6364C4.0914 28.094 4.30706 27.574 4.69055 27.1905C5.07404 26.8071 5.59402 26.5914 6.13636 26.5909H14.3182V30.6818C14.3182 31.2243 14.5337 31.7446 14.9173 32.1282C15.3009 32.5118 15.8211 32.7273 16.3636 32.7273C16.9061 32.7273 17.4264 32.5118 17.81 32.1282C18.1936 31.7446 18.4091 31.2243 18.4091 30.6818V26.5909H26.5909C27.1332 26.5914 27.6532 26.8071 28.0367 27.1905C28.4202 27.574 28.6359 28.094 28.6364 28.6364C28.6328 31.8902 27.3386 35.0097 25.0378 37.3105C22.737 39.6114 19.6175 40.9055 16.3636 40.9091Z" fill="black"/>
</svg>
