<svg width="45" height="39" viewBox="0 0 45 39" fill="none" xmlns="http://www.w3.org/2000/svg">
<path d="M36.9528 38.5715L31.9224 38.5699C30.7331 38.5708 29.5584 38.3076 28.4832 37.7995C27.4079 37.2913 26.4588 36.5508 25.7044 35.6314C24.95 34.7119 24.4091 33.6365 24.1207 32.4827C23.8324 31.3289 23.8037 30.1254 24.0368 28.9592L24.9456 24.4208C24.9921 24.1874 24.9862 23.9467 24.9284 23.7159C24.8707 23.4851 24.7624 23.27 24.6114 23.0861C24.4604 22.9022 24.2706 22.7541 24.0554 22.6525C23.8403 22.5508 23.6053 22.4982 23.3674 22.4983H21.6222C21.3844 22.4983 21.1495 22.551 20.9344 22.6527C20.7194 22.7544 20.5296 22.9025 20.3788 23.0864C20.2279 23.2703 20.1197 23.4854 20.0619 23.7161C20.0042 23.9468 19.9983 24.1875 20.0448 24.4208L20.9528 28.9578C21.186 30.1242 21.1573 31.3278 20.8688 32.4818C20.5802 33.6358 20.0391 34.7113 19.2845 35.6308C18.5299 36.5502 17.5805 37.2907 16.5049 37.7987C15.4294 38.3068 14.2545 38.5697 13.065 38.5685H8.04425C5.91265 38.5672 3.86859 37.7204 2.36052 36.214C0.852454 34.7075 0.00353221 32.6643 0 30.5328V30.2756C0.00178794 23.9413 0.525724 17.6179 1.56648 11.3696L2.34338 6.71502C2.65246 4.83543 3.6208 3.12734 5.07487 1.89685C6.52893 0.666373 8.37368 -0.00606742 10.2785 4.12563e-05H34.7696C36.6745 -0.00602246 38.5193 0.666475 39.9733 1.89702C41.4274 3.12756 42.3957 4.8357 42.7048 6.71534L43.433 11.0812C44.5067 17.5237 45.0305 24.0459 44.9986 30.5773C44.9818 32.7012 44.127 34.7326 42.6203 36.2296C41.1136 37.7267 39.0768 38.5683 36.9528 38.5715ZM21.6222 19.2842H23.3679C24.0817 19.2834 24.7868 19.4411 25.4323 19.7459C26.0778 20.0508 26.6475 20.4951 27.1004 21.0469C27.5532 21.5987 27.8779 22.2442 28.051 22.9367C28.224 23.6293 28.2412 24.3516 28.1011 25.0516L27.1921 29.5902C27.0523 30.2899 27.0696 31.0119 27.2427 31.7041C27.4158 32.3963 27.7404 33.0415 28.193 33.5931C28.6457 34.1447 29.2151 34.5889 29.8603 34.8938C30.5054 35.1986 31.2102 35.3565 31.9237 35.356L36.9541 35.3576C38.2283 35.3555 39.4501 34.8505 40.354 33.9524C41.2579 33.0543 41.7707 31.8357 41.781 30.5615C41.812 24.2121 41.3028 17.8716 40.259 11.6085L39.531 7.24264C39.3451 6.11509 38.7639 5.09053 37.8915 4.35243C37.0191 3.61432 35.9124 3.21087 34.7696 3.21433H10.2785C9.13574 3.21087 8.02906 3.61432 7.15664 4.35243C6.28423 5.09053 5.70304 6.11509 5.51717 7.24264L4.74012 11.8973C3.72858 17.9713 3.21938 24.1183 3.21767 30.2759V30.5331C3.21971 31.8121 3.72904 33.038 4.63391 33.9419C5.53877 34.8458 6.76526 35.3538 8.04425 35.3545H13.065C13.7785 35.355 14.4833 35.1971 15.1285 34.8922C15.7737 34.5874 16.3431 34.1432 16.7959 33.5916C17.2486 33.0401 17.5734 32.395 17.7467 31.7028C17.92 31.0105 17.9375 30.2885 17.798 29.5887L16.89 25.0517C16.7499 24.3519 16.767 23.6296 16.94 22.9371C17.113 22.2447 17.4376 21.5992 17.8904 21.0475C18.3431 20.4957 18.9127 20.0513 19.5581 19.7464C20.2035 19.4415 20.9085 19.2837 21.6222 19.2843V19.2842Z" fill="#13111A"/>
<path d="M17.6819 12.8571C17.6819 13.2833 17.5126 13.6921 17.2112 13.9935C16.9098 14.2949 16.501 14.4642 16.0748 14.4642H14.4676V16.0714C14.4676 16.4976 14.2983 16.9064 13.9969 17.2078C13.6955 17.5092 13.2867 17.6785 12.8605 17.6785C12.4343 17.6785 12.0255 17.5092 11.7241 17.2078C11.4227 16.9064 11.2534 16.4976 11.2534 16.0714V14.4642H9.64621C9.21997 14.4642 8.81118 14.2949 8.50978 13.9935C8.20839 13.6921 8.03906 13.2833 8.03906 12.8571C8.03906 12.4308 8.20839 12.0221 8.50978 11.7207C8.81118 11.4193 9.21997 11.2499 9.64621 11.2499H11.2534V9.64279C11.2534 9.21655 11.4227 8.80777 11.7241 8.50637C12.0255 8.20497 12.4343 8.03564 12.8605 8.03564C13.2867 8.03564 13.6955 8.20497 13.9969 8.50637C14.2983 8.80777 14.4676 9.21655 14.4676 9.64279V11.2499H16.0748C16.501 11.2499 16.9098 11.4193 17.2112 11.7207C17.5126 12.0221 17.6819 12.4308 17.6819 12.8571ZM34.557 12.8571C34.0802 12.8571 33.6141 12.9985 33.2176 13.2634C32.8212 13.5283 32.5122 13.9048 32.3298 14.3453C32.1473 14.7858 32.0996 15.2705 32.1926 15.7381C32.2856 16.2057 32.5152 16.6353 32.8523 16.9724C33.1895 17.3096 33.619 17.5392 34.0867 17.6322C34.5543 17.7252 35.039 17.6775 35.4795 17.495C35.92 17.3126 36.2965 17.0036 36.5614 16.6071C36.8263 16.2107 36.9677 15.7446 36.9677 15.2678C36.9677 14.6284 36.7137 14.0153 36.2616 13.5632C35.8095 13.1111 35.1963 12.8571 34.557 12.8571ZM29.7355 8.03564C29.2587 8.03564 28.7927 8.17703 28.3962 8.44192C27.9998 8.70682 27.6908 9.08332 27.5083 9.52382C27.3259 9.96432 27.2781 10.449 27.3711 10.9167C27.4642 11.3843 27.6938 11.8139 28.0309 12.151C28.368 12.4881 28.7976 12.7177 29.2652 12.8108C29.7329 12.9038 30.2176 12.856 30.6581 12.6736C31.0986 12.4911 31.4751 12.1821 31.74 11.7857C32.0049 11.3892 32.1463 10.9232 32.1463 10.4464C32.1463 9.807 31.8923 9.19383 31.4402 8.74173C30.9881 8.28963 30.3749 8.03564 29.7355 8.03564Z" fill="#FF00D5"/>
</svg>
