<svg width="45" height="45" viewBox="0 0 45 45" fill="none" xmlns="http://www.w3.org/2000/svg">
<path d="M40.8985 34.0803C41.7988 33.1309 42.3529 31.8499 42.3529 30.4412C42.3529 27.522 39.978 25.1471 37.0588 25.1471C34.1396 25.1471 31.7647 27.522 31.7647 30.4412C31.7647 31.8499 32.3188 33.1309 33.2192 34.0803C32.4056 34.5315 31.6791 35.1214 31.072 35.8179L28.0184 32.7643C28.7122 31.718 29.1176 30.4645 29.1176 29.1176C29.1176 25.9218 26.8404 23.2481 23.8235 22.6332V19.8529H30.4412V15.8824C30.4412 12.8954 28.7832 10.2888 26.3396 8.93321C27.24 7.98371 27.7941 6.70279 27.7941 5.29412C27.7941 2.37494 25.4192 0 22.5 0C19.5808 0 17.2059 2.37494 17.2059 5.29412C17.2059 6.70279 17.76 7.98371 18.6604 8.93321C16.2167 10.2888 14.5588 12.8954 14.5588 15.8824V19.8529H21.1765V22.6332C18.1595 23.2481 15.8824 25.9219 15.8824 29.1176C15.8824 30.4645 16.2878 31.718 16.9815 32.7644L13.928 35.818C13.3209 35.1214 12.5944 34.5316 11.7808 34.0804C12.6812 33.1309 13.2353 31.8499 13.2353 30.4412C13.2353 27.522 10.8604 25.1471 7.94118 25.1471C5.022 25.1471 2.64706 27.522 2.64706 30.4412C2.64706 31.8499 3.20118 33.1309 4.10153 34.0803C1.65785 35.4359 0 38.0425 0 41.0294V45H15.8824V41.0294C15.8824 40.0136 15.6904 39.0419 15.3412 38.1482L18.8532 34.6361C19.8996 35.3299 21.1531 35.7353 22.5 35.7353C23.8469 35.7353 25.1004 35.3299 26.1468 34.6361L29.6588 38.1482C29.3096 39.0419 29.1176 40.0136 29.1176 41.0294V45H45V41.0294C45 38.0425 43.3421 35.4359 40.8985 34.0803ZM7.94118 27.7941C9.40076 27.7941 10.5882 28.9816 10.5882 30.4412C10.5882 31.9008 9.40076 33.0882 7.94118 33.0882C6.48159 33.0882 5.29412 31.9008 5.29412 30.4412C5.29412 28.9816 6.48159 27.7941 7.94118 27.7941ZM13.2353 42.3529H2.64706V41.0294C2.64706 38.1102 5.022 35.7353 7.94118 35.7353C10.8604 35.7353 13.2353 38.1102 13.2353 41.0294V42.3529ZM22.5 2.64706C23.9596 2.64706 25.1471 3.83453 25.1471 5.29412C25.1471 6.75371 23.9596 7.94118 22.5 7.94118C21.0404 7.94118 19.8529 6.75371 19.8529 5.29412C19.8529 3.83453 21.0404 2.64706 22.5 2.64706ZM17.2059 17.2059V15.8824C17.2059 12.9632 19.5808 10.5882 22.5 10.5882C25.4192 10.5882 27.7941 12.9632 27.7941 15.8824V17.2059H17.2059ZM22.5 33.0882C20.3105 33.0882 18.5294 31.3071 18.5294 29.1176C18.5294 26.9283 20.3105 25.1471 22.5 25.1471C24.6895 25.1471 26.4706 26.9283 26.4706 29.1176C26.4706 31.3071 24.6895 33.0882 22.5 33.0882ZM37.0588 27.7941C38.5184 27.7941 39.7059 28.9816 39.7059 30.4412C39.7059 31.9008 38.5184 33.0882 37.0588 33.0882C35.5992 33.0882 34.4118 31.9008 34.4118 30.4412C34.4118 28.9816 35.5992 27.7941 37.0588 27.7941ZM42.3529 42.3529H31.7647V41.0294C31.7647 38.1102 34.1396 35.7353 37.0588 35.7353C39.978 35.7353 42.3529 38.1102 42.3529 41.0294V42.3529Z" fill="black"/>
<circle cx="22.5" cy="29.5" r="4.5" fill="#FF00D5"/>
</svg>
