<svg width="42" height="42" viewBox="0 0 42 42" fill="none" xmlns="http://www.w3.org/2000/svg">
<path d="M16.5043 23.9938V22.4942C17.3745 22.498 18.2269 22.2483 18.9575 21.7757C19.6881 21.303 20.2652 20.6277 20.6183 19.8324C20.9714 19.0371 21.0852 18.1562 20.9459 17.2973C20.8066 16.4383 20.4201 15.6386 19.8336 14.9957C20.4201 14.3528 20.8066 13.5531 20.9459 12.6941C21.0852 11.8352 20.9714 10.9543 20.6183 10.159C20.2652 9.36367 19.6881 8.68844 18.9575 8.21575C18.2269 7.74307 17.3745 7.4934 16.5043 7.49725V5.99756H13.5049V7.49725H9.00586V10.4966H10.5055V19.4948H9.00586V22.4942H13.5049V23.9938H16.5043ZM16.5043 10.4966C16.9021 10.4966 17.2835 10.6546 17.5648 10.9359C17.846 11.2171 18.004 11.5986 18.004 11.9963C18.004 12.3941 17.846 12.7755 17.5648 13.0568C17.2835 13.338 16.9021 13.496 16.5043 13.496H13.5049V10.4966H16.5043ZM13.5049 16.4954H16.5043C16.9021 16.4954 17.2835 16.6534 17.5648 16.9346C17.846 17.2159 18.004 17.5973 18.004 17.9951C18.004 18.3928 17.846 18.7743 17.5648 19.0555C17.2835 19.3368 16.9021 19.4948 16.5043 19.4948H13.5049V16.4954Z" fill="#FF00D5"/>
<path d="M42 13.4959C42 12.3027 41.526 11.1583 40.6823 10.3146C39.8385 9.47086 38.6942 8.99685 37.5009 8.99685H28.7412C27.7106 6.63592 26.0891 4.58029 24.0332 3.02809C21.9773 1.47588 19.5561 0.479443 17.0032 0.134812C14.4503 -0.209819 11.8516 0.108979 9.45768 1.06048C7.06375 2.01198 4.95529 3.5641 3.33551 5.56723C1.71573 7.57036 0.639248 9.95697 0.20983 12.497C-0.219589 15.0371 0.0125314 17.6449 0.883818 20.0692C1.7551 22.4934 3.23618 24.6524 5.18428 26.338C7.13239 28.0235 9.48184 29.1788 12.0062 29.6926V29.9925C12.0095 31.103 12.4266 32.1724 13.1759 32.9919C12.4266 33.8114 12.0095 34.8808 12.0062 35.9913V37.491C12.0062 38.6842 12.4802 39.8286 13.3239 40.6723C14.1677 41.516 15.312 41.99 16.5053 41.99H37.5009C38.6942 41.99 39.8385 41.516 40.6823 40.6723C41.526 39.8286 42 38.6842 42 37.491V35.9913C41.9967 34.8808 41.5796 33.8114 40.8302 32.9919C41.5796 32.1724 41.9967 31.103 42 29.9925V28.4928C41.9967 27.3823 41.5796 26.313 40.8302 25.4934C41.5796 24.6739 41.9967 23.6045 42 22.4941V20.9944C41.9967 19.8839 41.5796 18.8145 40.8302 17.995C41.5796 17.1755 41.9967 16.1061 42 14.9956V13.4959ZM37.5009 11.9962C37.8987 11.9962 38.2801 12.1542 38.5614 12.4355C38.8426 12.7167 39.0006 13.0982 39.0006 13.4959V14.9956C39.0006 15.3934 38.8426 15.7748 38.5614 16.0561C38.2801 16.3373 37.8987 16.4953 37.5009 16.4953H29.926C29.9755 16.0019 30.0025 15.5025 30.0025 14.9956C30.0035 13.9883 29.903 12.9834 29.7025 11.9962H37.5009ZM39.0006 20.9944V22.4941C39.0006 22.8918 38.8426 23.2733 38.5614 23.5545C38.2801 23.8358 37.8987 23.9938 37.5009 23.9938H26.9746C28.004 22.6381 28.7942 21.1165 29.3111 19.4947H37.5009C37.8987 19.4947 38.2801 19.6527 38.5614 19.9339C38.8426 20.2152 39.0006 20.5966 39.0006 20.9944ZM3.00804 14.9956C3.00804 12.6227 3.71169 10.3031 5.02999 8.33015C6.3483 6.35716 8.22205 4.81941 10.4143 3.91135C12.6066 3.00328 15.0189 2.76569 17.3462 3.22862C19.6735 3.69155 21.8112 4.8342 23.4891 6.51208C25.167 8.18997 26.3096 10.3277 26.7726 12.655C27.2355 14.9823 26.9979 17.3946 26.0898 19.5869C25.1818 21.7791 23.644 23.6529 21.671 24.9712C19.6981 26.2895 17.3785 26.9931 15.0056 26.9931C11.8247 26.9896 8.77518 25.7244 6.52598 23.4752C4.27678 21.226 3.01162 18.1765 3.00804 14.9956ZM24.0037 26.9646V26.9931H37.5009C37.8987 26.9931 38.2801 27.1511 38.5614 27.4324C38.8426 27.7136 39.0006 28.0951 39.0006 28.4928V29.9925C39.0006 30.3903 38.8426 30.7717 38.5614 31.053C38.2801 31.3342 37.8987 31.4922 37.5009 31.4922H16.5053C16.1075 31.4922 15.7261 31.3342 15.4448 31.053C15.1636 30.7717 15.0056 30.3903 15.0056 29.9925C18.2549 29.9914 21.4147 28.9281 24.0037 26.9646ZM39.0006 37.491C39.0006 37.8887 38.8426 38.2702 38.5614 38.5514C38.2801 38.8327 37.8987 38.9907 37.5009 38.9907H16.5053C16.1075 38.9907 15.7261 38.8327 15.4448 38.5514C15.1636 38.2702 15.0056 37.8887 15.0056 37.491V35.9913C15.0056 35.5935 15.1636 35.2121 15.4448 34.9308C15.7261 34.6496 16.1075 34.4916 16.5053 34.4916H37.5009C37.8987 34.4916 38.2801 34.6496 38.5614 34.9308C38.8426 35.2121 39.0006 35.5935 39.0006 35.9913V37.491Z" fill="black"/>
</svg>
