<svg width="189" height="61" viewBox="0 0 189 61" fill="none" xmlns="http://www.w3.org/2000/svg">
<rect width="188.728" height="60.9122" rx="3.41075" fill="black"/>
<path d="M73.3197 44.4385L71.5947 40.0062H64.5606L62.8805 44.4385H60.5283L66.8456 28.5672H69.377L75.6942 44.4385H73.3197ZM68.0553 30.8505L65.3447 37.9691H70.8107L68.0553 30.8505ZM79.6903 48.6917H77.6069V33.6711H79.6455V35.35C79.9591 34.7829 80.4295 34.3203 81.0568 33.9621C81.684 33.6039 82.4158 33.4249 83.2521 33.4249C84.8053 33.4249 86.015 33.9546 86.8812 35.0142C87.7623 36.0738 88.2029 37.4169 88.2029 39.0436C88.2029 40.6852 87.7474 42.0432 86.8364 43.1177C85.9403 44.1922 84.7232 44.7295 83.1849 44.7295C82.3934 44.7295 81.6915 44.5653 81.0792 44.237C80.4669 43.9087 80.0039 43.4908 79.6903 42.9834V48.6917ZM86.0524 39.0436C86.0524 37.9542 85.7611 37.0588 85.1787 36.3573C84.6112 35.641 83.8421 35.2828 82.8713 35.2828C81.9155 35.2828 81.1389 35.641 80.5415 36.3573C79.9591 37.0588 79.6679 37.9542 79.6679 39.0436C79.6679 40.1629 79.9591 41.0807 80.5415 41.797C81.1389 42.4984 81.9155 42.8491 82.8713 42.8491C83.8271 42.8491 84.5962 42.4984 85.1787 41.797C85.7611 41.0807 86.0524 40.1629 86.0524 39.0436ZM92.9694 48.6917H90.8861V33.6711H92.9246V35.35C93.2383 34.7829 93.7087 34.3203 94.3359 33.9621C94.9632 33.6039 95.695 33.4249 96.5313 33.4249C98.0845 33.4249 99.2942 33.9546 100.16 35.0142C101.042 36.0738 101.482 37.4169 101.482 39.0436C101.482 40.6852 101.027 42.0432 100.116 43.1177C99.2195 44.1922 98.0024 44.7295 96.4641 44.7295C95.6726 44.7295 94.9707 44.5653 94.3584 44.237C93.746 43.9087 93.2831 43.4908 92.9694 42.9834V48.6917ZM99.3315 39.0436C99.3315 37.9542 99.0403 37.0588 98.4579 36.3573C97.8903 35.641 97.1212 35.2828 96.1505 35.2828C95.1947 35.2828 94.4181 35.641 93.8207 36.3573C93.2383 37.0588 92.9471 37.9542 92.9471 39.0436C92.9471 40.1629 93.2383 41.0807 93.8207 41.797C94.4181 42.4984 95.1947 42.8491 96.1505 42.8491C97.1063 42.8491 97.8754 42.4984 98.4579 41.797C99.0403 41.0807 99.3315 40.1629 99.3315 39.0436ZM120.116 32.1713L118.144 32.8652C118.04 32.1787 117.704 31.5594 117.136 31.0072C116.569 30.4401 115.785 30.1566 114.784 30.1566C113.903 30.1566 113.171 30.4103 112.589 30.9177C112.006 31.4251 111.715 32.0519 111.715 32.7981C111.715 33.3801 111.886 33.8726 112.23 34.2755C112.589 34.6784 113.096 34.9545 113.754 35.1038L116.128 35.6186C117.442 35.9022 118.458 36.4394 119.175 37.2304C119.892 38.0064 120.25 38.954 120.25 40.0733C120.25 41.3567 119.742 42.4611 118.727 43.3864C117.711 44.3116 116.39 44.7743 114.762 44.7743C112.984 44.7743 111.588 44.3116 110.572 43.3864C109.571 42.4462 108.989 41.3344 108.825 40.0509L110.93 39.3794C111.02 40.3345 111.393 41.1404 112.051 41.797C112.708 42.4536 113.604 42.782 114.739 42.782C115.785 42.782 116.591 42.5432 117.159 42.0656C117.726 41.5881 118.01 40.9837 118.01 40.2524C118.01 39.6555 117.808 39.1406 117.405 38.7078C117.002 38.2601 116.412 37.9542 115.635 37.79L113.373 37.2975C112.192 37.0438 111.252 36.5439 110.55 35.7977C109.848 35.0515 109.497 34.1039 109.497 32.9548C109.497 31.7012 110.005 30.6043 111.02 29.6641C112.051 28.709 113.291 28.2314 114.739 28.2314C116.367 28.2314 117.614 28.6269 118.48 29.4179C119.347 30.2088 119.892 31.1266 120.116 32.1713ZM125.649 30.2685V33.6711H127.979V35.5739H125.649V41.1702C125.649 41.6776 125.761 42.0507 125.985 42.2895C126.224 42.5283 126.612 42.6476 127.15 42.6476C127.463 42.6476 127.74 42.6178 127.979 42.5581V44.3489C127.62 44.4832 127.142 44.5504 126.545 44.5504C125.619 44.5504 124.887 44.2818 124.35 43.7445C123.812 43.2073 123.543 42.4536 123.543 41.4836V35.5739H121.482V33.6711H122.065C122.617 33.6711 123.028 33.5219 123.297 33.2234C123.58 32.91 123.722 32.5071 123.722 32.0146V30.2685H125.649ZM132.897 41.8865C133.555 42.5581 134.354 42.8939 135.294 42.8939C136.235 42.8939 137.027 42.5581 137.669 41.8865C138.326 41.2001 138.655 40.2524 138.655 39.0436C138.655 37.8497 138.326 36.917 137.669 36.2454C137.027 35.5589 136.235 35.2157 135.294 35.2157C134.354 35.2157 133.555 35.5589 132.897 36.2454C132.255 36.917 131.934 37.8497 131.934 39.0436C131.934 40.2524 132.255 41.2001 132.897 41.8865ZM131.329 34.9695C132.375 33.88 133.696 33.3353 135.294 33.3353C136.892 33.3353 138.207 33.88 139.237 34.9695C140.283 36.0439 140.805 37.402 140.805 39.0436C140.805 40.7001 140.29 42.0731 139.259 43.1625C138.229 44.237 136.907 44.7743 135.294 44.7743C133.681 44.7743 132.36 44.237 131.329 43.1625C130.299 42.0731 129.784 40.7001 129.784 39.0436C129.784 37.402 130.299 36.0439 131.329 34.9695ZM149.481 33.5592V35.7977C149.167 35.7529 148.861 35.7306 148.563 35.7306C146.591 35.7306 145.606 36.8349 145.606 39.0436V44.4385H143.5V33.6711H145.561V35.5515C146.218 34.1785 147.293 33.492 148.787 33.492C149.026 33.492 149.257 33.5144 149.481 33.5592ZM152.982 37.9467H158.874C158.844 37.1408 158.575 36.4842 158.067 35.9768C157.56 35.4545 156.843 35.1933 155.917 35.1933C155.08 35.1933 154.393 35.4694 153.856 36.0216C153.318 36.5588 153.027 37.2005 152.982 37.9467ZM159.187 40.7449L161.002 41.3717C160.688 42.3716 160.106 43.1924 159.255 43.8341C158.403 44.4609 157.373 44.7743 156.163 44.7743C154.655 44.7743 153.37 44.2594 152.31 43.2297C151.265 42.185 150.742 40.7822 150.742 39.0212C150.742 37.3796 151.25 36.0216 152.265 34.9471C153.281 33.8726 154.49 33.3353 155.894 33.3353C157.522 33.3353 158.792 33.8502 159.703 34.8799C160.614 35.8947 161.069 37.2602 161.069 38.9764C161.069 39.2451 161.054 39.4689 161.024 39.648H152.915C152.93 40.6031 153.243 41.3866 153.856 41.9985C154.483 42.6103 155.252 42.9163 156.163 42.9163C157.701 42.9163 158.709 42.1925 159.187 40.7449Z" fill="white"/>
<path opacity="0.6" d="M62.1728 18.8291V14.9661H63.1201C64.11 14.9661 64.9293 15.5886 64.9293 16.9019C64.9293 18.2151 64.1015 18.8291 63.1115 18.8291H62.1728ZM63.1542 19.9207C64.8781 19.9207 66.1496 18.8121 66.1496 16.9019C66.1496 14.9916 64.8866 13.8745 63.1627 13.8745H60.9951V19.9207H63.1542ZM69.0993 16.8933C69.0993 15.5289 70.0551 14.8808 70.9853 14.8808C71.924 14.8808 72.8798 15.5289 72.8798 16.8933C72.8798 18.2578 71.924 18.9059 70.9853 18.9059C70.0551 18.9059 69.0993 18.2578 69.0993 16.8933ZM67.8789 16.9019C67.8789 18.8462 69.3468 20.0486 70.9853 20.0486C72.6324 20.0486 74.1002 18.8462 74.1002 16.9019C74.1002 14.949 72.6324 13.7466 70.9853 13.7466C69.3468 13.7466 67.8789 14.949 67.8789 16.9019ZM81.663 18.0531L80.3146 13.8745H79.0943L77.7544 18.0361L76.645 13.8745H75.3991L77.0803 19.9207H78.3091L79.6916 15.6142L81.0742 19.9207H82.286L83.9586 13.8745H82.7553L81.663 18.0531ZM90.985 19.9207V13.8745H89.8073V17.874L87.2898 13.8745H85.8219V19.9207H86.9996V15.6312L89.7475 19.9207H90.985ZM97.3053 19.9207V18.795H94.6086V13.8745H93.4309V19.9207H97.3053ZM99.9349 16.8933C99.9349 15.5289 100.891 14.8808 101.821 14.8808C102.76 14.8808 103.715 15.5289 103.715 16.8933C103.715 18.2578 102.76 18.9059 101.821 18.9059C100.891 18.9059 99.9349 18.2578 99.9349 16.8933ZM98.7145 16.9019C98.7145 18.8462 100.182 20.0486 101.821 20.0486C103.468 20.0486 104.936 18.8462 104.936 16.9019C104.936 14.949 103.468 13.7466 101.821 13.7466C100.182 13.7466 98.7145 14.949 98.7145 16.9019ZM110.837 19.9207H112.117L109.813 13.8745H108.447L106.126 19.9207H107.372L107.875 18.5392H110.333L110.837 19.9207ZM109.104 15.1792L109.941 17.4647H108.268L109.104 15.1792ZM115.135 18.8291V14.9661H116.082C117.072 14.9661 117.891 15.5886 117.891 16.9019C117.891 18.2151 117.063 18.8291 116.073 18.8291H115.135ZM116.116 19.9207C117.84 19.9207 119.111 18.8121 119.111 16.9019C119.111 14.9916 117.848 13.8745 116.125 13.8745H113.957V19.9207H116.116ZM125.237 16.8933C125.237 15.5289 126.192 14.8808 127.123 14.8808C128.061 14.8808 129.017 15.5289 129.017 16.8933C129.017 18.2578 128.061 18.9059 127.123 18.9059C126.192 18.9059 125.237 18.2578 125.237 16.8933ZM124.016 16.9019C124.016 18.8462 125.484 20.0486 127.123 20.0486C128.77 20.0486 130.238 18.8462 130.238 16.9019C130.238 14.949 128.77 13.7466 127.123 13.7466C125.484 13.7466 124.016 14.949 124.016 16.9019ZM137.488 19.9207V13.8745H136.311V17.874L133.793 13.8745H132.325V19.9207H133.503V15.6312L136.251 19.9207H137.488ZM147.565 14.9916V13.8745H142.555V14.9916H144.467V19.9207H145.653V14.9916H147.565ZM154.461 19.9207V13.8745H153.275V16.3049H150.638V13.8745H149.46V19.9207H150.638V17.4135H153.275V19.9207H154.461ZM160.7 19.9207V18.8121H158.088V17.4135H160.452V16.3646H158.088V14.9831H160.7V13.8745H156.91V19.9207H160.7Z" fill="white"/>
<path d="M46.3037 38.0606C45.611 39.5935 45.2803 40.2778 44.3883 41.6322C43.1455 43.5237 41.392 45.8795 39.2191 45.8994C37.2891 45.9174 36.793 44.6442 34.1728 44.6596C31.5526 44.6749 31.0066 45.9221 29.0764 45.9041C26.9036 45.8848 25.2435 43.7574 23.9993 41.8647C20.5217 36.5748 20.1584 30.3676 22.3032 27.0677C23.8274 24.7212 26.2329 23.3502 28.4937 23.3502C30.7959 23.3502 32.2434 24.6113 34.1475 24.6113C35.9943 24.6113 37.119 23.3481 39.7812 23.3481C41.7934 23.3481 43.9255 24.4428 45.445 26.3341C40.4666 29.0597 41.276 36.1611 46.3037 38.0606Z" fill="white"/>
<path d="M38.0408 20.0375C39.0082 18.7969 39.7415 17.0468 39.4749 15.2566C37.8948 15.3646 36.0479 16.3693 34.9692 17.6784C33.9899 18.8663 33.1811 20.6284 33.4957 22.3412C35.2193 22.3953 37.0041 21.3659 38.0408 20.0375Z" fill="white"/>
</svg>
