<svg width="115" height="36" viewBox="0 0 115 36" fill="none" xmlns="http://www.w3.org/2000/svg">
<path d="M43.7781 28.4081C39.4932 28.4081 36.7532 26.3677 35.6164 23.3653L39.639 21.0334C40.3677 22.7241 41.6211 23.8609 43.9238 23.8609C46.1391 23.8609 46.693 22.9864 46.693 22.1994C46.693 20.946 45.527 20.4505 42.4664 19.6051C39.4349 18.7598 36.4617 17.3024 36.4617 13.3964C36.4617 9.46135 39.7847 7.18775 43.3117 7.18775C46.6638 7.18775 49.2872 8.79093 50.7738 11.7933L46.8387 14.096C46.1391 12.6386 45.1772 11.735 43.3117 11.735C41.8543 11.735 41.1255 12.4637 41.1255 13.2798C41.1255 14.2126 41.6211 14.8539 44.7983 15.8158C47.8881 16.7486 51.3568 17.8271 51.3568 22.1411C51.3568 26.0762 48.2087 28.4081 43.7781 28.4081ZM62.0824 13.0175C65.0264 13.0175 67.5332 15.1162 67.5332 19.0513V28H63.1609V19.6926C63.1609 17.8854 62.0241 17.04 60.625 17.04C59.0218 17.04 57.9141 17.9728 57.9141 20.0424V28H53.5418V7.59583H57.9141V14.7956C58.7011 13.7171 60.1586 13.0175 62.0824 13.0175ZM72.7219 12.143C71.2937 12.143 70.0986 10.9479 70.0986 9.51965C70.0986 8.09136 71.2937 6.89626 72.7219 6.89626C74.1502 6.89626 75.3453 8.09136 75.3453 9.51965C75.3453 10.9479 74.1502 12.143 72.7219 12.143ZM70.5358 28V13.4256H74.9081V28H70.5358ZM86.1236 11.3852C84.4912 11.2394 83.4127 11.735 83.4127 13.4256H86.1236V17.623H83.4127V28H79.0404V17.623H77.0874V13.4256H79.0404C79.0404 9.34476 81.2849 6.89626 86.1236 7.18775V11.3852ZM96.6966 17.623H93.6943V22.7824C93.6943 24.0358 94.7728 24.1524 96.6966 24.0358V28C90.9834 28.583 89.322 26.8632 89.322 22.7824V17.623H86.9901V13.4256H89.322V10.6565L93.6943 9.34476V13.4256H96.6966V17.623ZM103.829 16.0198C104.412 14.0669 106.365 13.1341 108.202 13.1341V18.0894C106.394 17.7979 103.829 18.5266 103.829 21.4124V28H99.4569V13.4256H103.829V16.0198ZM110.673 28.4081C109.158 28.4081 107.904 27.1547 107.904 25.6389C107.904 24.1232 109.158 22.8698 110.673 22.8698C112.189 22.8698 113.443 24.1232 113.443 25.6389C113.443 27.1547 112.189 28.4081 110.673 28.4081Z" fill="white"/>
<g clip-path="url(#clip0_420_21)">
<path d="M14.7228 6.23438L14.3319 12.358C14.3319 13.27 15.1137 14.0518 16.0257 14.0518C16.5469 14.0518 17.068 13.7912 17.4589 13.5306L17.5892 13.4003C17.9801 13.0095 18.3709 12.8792 18.8921 12.8792C19.4132 12.8792 19.8041 13.0095 20.195 13.4003L20.3253 13.5306C20.7162 13.7912 21.2373 14.0518 21.7585 14.0518C22.6705 14.0518 23.4522 13.4003 23.4522 12.4883L23.8431 6.23438H24.7551C28.4033 6.23438 31.2697 9.10076 31.2697 12.7489V12.8792L30.6182 20.9572C30.4879 22.2601 30.3576 23.3024 30.2273 24.2144C30.0971 25.1265 29.8365 25.9082 29.4456 26.5597C28.7941 27.7323 27.7518 28.6443 26.5792 29.1655C25.7975 29.5563 25.0157 29.6866 24.234 29.6866C23.4522 29.6866 22.4099 29.6866 21.107 29.6866H11.7261C8.078 29.6866 5.21161 26.8202 5.21161 23.1721C5.21161 22.3904 5.73277 21.8692 6.51451 21.8692H9.12032C9.90206 21.8692 10.4232 21.348 10.4232 20.5663C10.4232 19.7846 9.90206 19.2634 9.12032 19.2634H3.90871C3.12697 19.2634 2.60581 18.7422 2.60581 17.9605C2.60581 17.1788 3.12697 16.6576 3.90871 16.6576H6.51451C7.29625 16.6576 7.81742 16.1364 7.81742 15.3547C7.81742 14.573 7.29625 14.0518 6.51451 14.0518H1.3029C0.521161 14.0518 0 13.5306 0 12.7489C0 11.9671 0.521161 11.446 1.3029 11.446H6.25393C6.38422 10.6642 6.6448 10.0128 6.90538 9.49163C7.55684 8.31902 8.59916 7.40699 9.77177 6.88583C10.5535 6.49496 11.3353 6.36467 12.117 6.36467C12.8987 6.23437 13.6805 6.23438 14.7228 6.23438Z" fill="white"/>
</g>
<defs>
<clipPath id="clip0_420_21">
<rect width="31.2697" height="31.2697" fill="white" transform="translate(0 2.32568)"/>
</clipPath>
</defs>
</svg>
