<svg width="26" height="26" viewBox="0 0 26 26" fill="none" xmlns="http://www.w3.org/2000/svg">
<path d="M1.75 4.25C1.75 2.86929 2.86929 1.75 4.25 1.75H8.34905C8.88709 1.75 9.36476 2.09429 9.5349 2.60472L11.4072 8.22151C11.6039 8.81165 11.3367 9.45664 10.7803 9.73483L7.95876 11.1456C9.33656 14.2015 11.7985 16.6634 14.8544 18.0412L16.2652 15.2197C16.5434 14.6633 17.1883 14.3961 17.7785 14.5928L23.3953 16.4651C23.9057 16.6352 24.25 17.1129 24.25 17.6509V21.75C24.25 23.1307 23.1307 24.25 21.75 24.25H20.5C10.1447 24.25 1.75 15.8553 1.75 5.5V4.25Z" stroke="white" stroke-width="2" stroke-linecap="round" stroke-linejoin="round"/>
</svg>
