<svg width="20" height="21" viewBox="0 0 20 21" fill="none" xmlns="http://www.w3.org/2000/svg">
<circle cx="10" cy="10.4839" r="10" fill="#724FE5"/>
<path d="M15.0429 6.72176C14.9682 6.64639 14.8792 6.58656 14.7812 6.54573C14.6832 6.50491 14.5781 6.48389 14.472 6.48389C14.3658 6.48389 14.2607 6.50491 14.1627 6.54573C14.0647 6.58656 13.9758 6.64639 13.901 6.72176L7.90986 12.7209L5.39278 10.1958C5.31516 10.1208 5.22353 10.0619 5.12312 10.0223C5.02271 9.98274 4.9155 9.96334 4.80759 9.9652C4.69969 9.96707 4.59321 9.99017 4.49423 10.0332C4.39525 10.0762 4.30572 10.1383 4.23074 10.2159C4.15576 10.2935 4.0968 10.3852 4.05723 10.4856C4.01766 10.586 3.99826 10.6932 4.00012 10.8011C4.00199 10.909 4.02509 11.0155 4.06811 11.1145C4.11113 11.2134 4.17322 11.303 4.25084 11.378L7.33889 14.466C7.41365 14.5414 7.50259 14.6012 7.60059 14.642C7.69859 14.6829 7.8037 14.7039 7.90986 14.7039C8.01602 14.7039 8.12113 14.6829 8.21913 14.642C8.31712 14.6012 8.40607 14.5414 8.48083 14.466L15.0429 7.90391C15.1246 7.8286 15.1897 7.7372 15.2343 7.63548C15.2788 7.53375 15.3018 7.42389 15.3018 7.31283C15.3018 7.20178 15.2788 7.09192 15.2343 6.99019C15.1897 6.88846 15.1246 6.79707 15.0429 6.72176Z" fill="white"/>
</svg>
