<svg width="22" height="27" viewBox="0 0 22 27" fill="none" xmlns="http://www.w3.org/2000/svg">
<path d="M18.0711 18.8211C16.8152 20.077 14.0891 22.803 12.4126 24.4795C11.6316 25.2605 10.368 25.2601 9.58693 24.4791C7.93868 22.8308 5.26912 20.1613 3.92893 18.8211C0.0236893 14.9158 0.0236893 8.58418 3.92893 4.67893C7.83418 0.773689 14.1658 0.773689 18.0711 4.67893C21.9763 8.58418 21.9763 14.9158 18.0711 18.8211Z" stroke="white" stroke-width="2" stroke-linecap="round" stroke-linejoin="round"/>
<path d="M14.75 11.75C14.75 13.8211 13.0711 15.5 11 15.5C8.92893 15.5 7.25 13.8211 7.25 11.75C7.25 9.67893 8.92893 8 11 8C13.0711 8 14.75 9.67893 14.75 11.75Z" stroke="white" stroke-width="2" stroke-linecap="round" stroke-linejoin="round"/>
</svg>
