<svg width="19" height="13" viewBox="0 0 19 13" fill="none" xmlns="http://www.w3.org/2000/svg">
<path d="M4.17472 10.4082C8.29557 12.0164 11.8024 12.3296 15.7764 9.82645C15.7473 9.87015 14.9612 11.0347 12.894 11.6316C13.3307 12.2285 13.9276 12.9127 13.9276 12.9127C15.2523 12.9127 16.548 12.5342 17.6689 11.8063C18.5424 11.224 19.0373 10.2195 18.9354 9.17135C18.7607 7.38074 18.3385 5.63382 17.6834 3.95973C16.8537 1.77609 14.8593 0.262075 12.5446 0.0436936C12.3408 0.0291291 12.1952 0.0291291 12.1079 0.0291291L11.875 0.262031C14.539 1.01904 15.8638 2.1982 15.8929 2.24189C11.8022 0.174687 6.96903 0.145602 2.84918 2.15455C2.84918 2.15455 4.15938 0.858916 7.05633 0.174687L6.88165 0C6.57592 0 6.28476 0.0291289 5.97908 0.0727792C3.83909 0.436719 2.04852 1.90704 1.27695 3.93056C0.607287 5.67747 0.170569 7.51173 0.0104456 9.37513C-0.0768982 10.365 0.38895 11.3404 1.20417 11.9082C2.28143 12.6215 3.5625 13 4.85813 13C4.85813 13 5.38219 12.3158 5.9063 11.7044C3.941 11.122 3.14034 9.95745 3.12578 9.91375L3.49564 10.1026C3.71674 10.2156 3.94342 10.3179 4.17472 10.4082ZM6.45949 9.14222C5.51323 9.1131 4.77079 8.31244 4.79992 7.35161C4.82905 6.44905 5.55693 5.72117 6.45949 5.69204C7.40575 5.72117 8.1482 6.52182 8.11907 7.48265C8.07537 8.38526 7.36206 9.11314 6.45949 9.14222ZM12.399 9.14222C11.4527 9.1131 10.7103 8.31244 10.7394 7.35161C10.7686 6.44905 11.4964 5.72117 12.399 5.69204C13.3453 5.72117 14.0877 6.52182 14.0586 7.48265C14.0295 8.38526 13.3016 9.11314 12.399 9.14222Z" fill="white"/>
</svg>
